<?xml version="1.0" encoding="UTF-8"?>
<!DOCTYPE svg PUBLIC "-//W3C//DTD SVG 1.1//EN" "http://www.w3.org/Graphics/SVG/1.1/DTD/svg11.dtd">
<!-- Creator: CorelDRAW X7 -->
<svg xmlns="http://www.w3.org/2000/svg" xml:space="preserve" width="150%" height="150%" version="1.1" style="shape-rendering:geometricPrecision; text-rendering:geometricPrecision; image-rendering:optimizeQuality; fill-rule:evenodd; clip-rule:evenodd"
viewBox="0 0 31500 44550"
 xmlns:xlink="http://www.w3.org/1999/xlink">
 <defs>
  <style type="text/css">
   <![CDATA[
    .fil10 {fill:url(#id0)}
    .fil17 {fill:url(#id1)}
    .fil14 {fill:url(#id2)}
    .fil0 {fill:url(#id3)}
    .fil3 {fill:url(#id4)}
    .fil1 {fill:url(#id5)}
    .fil8 {fill:url(#id6)}
    .fil11 {fill:url(#id7)}
    .fil6 {fill:url(#id8)}
    .fil16 {fill:url(#id9)}
    .fil9 {fill:url(#id10)}
    .fil2 {fill:url(#id11)}
    .fil12 {fill:url(#id12)}
    .fil13 {fill:url(#id13)}
    .fil4 {fill:url(#id14)}
    .fil7 {fill:url(#id15)}
    .fil5 {fill:url(#id16)}
    .fil15 {fill:url(#id17)}
   ]]>
  </style>
  <linearGradient id="id0" gradientUnits="userSpaceOnUse" x1="2567.94" y1="28963.2" x2="3475.95" y2="28053.5">
   <stop offset="0" style="stop-opacity:1; stop-color:#56398F"/>
   <stop offset="0.619608" style="stop-opacity:1; stop-color:#79319F"/>
   <stop offset="1" style="stop-opacity:1; stop-color:#9C29B0"/>
  </linearGradient>
  <linearGradient id="id1" gradientUnits="userSpaceOnUse" x1="19541.9" y1="22119.2" x2="20269.2" y2="21392">
   <stop offset="0" style="stop-opacity:1; stop-color:#56398F"/>
   <stop offset="1" style="stop-opacity:1; stop-color:#9C29B0"/>
  </linearGradient>
  <linearGradient id="id2" gradientUnits="userSpaceOnUse" xlink:href="#id1" x1="13308.6" y1="22119.2" x2="14035.8" y2="21392">
  </linearGradient>
  <linearGradient id="id3" gradientUnits="userSpaceOnUse" xlink:href="#id0" x1="1788.6" y1="7924.22" x2="2696.96" y2="7014.18">
  </linearGradient>
  <linearGradient id="id4" gradientUnits="userSpaceOnUse" xlink:href="#id0" x1="1788.6" y1="10521.4" x2="2696.96" y2="9611.39">
  </linearGradient>
  <linearGradient id="id5" gradientUnits="userSpaceOnUse" xlink:href="#id0" x1="3087.41" y1="9222.66" x2="3995.37" y2="8312.94">
  </linearGradient>
  <linearGradient id="id6" gradientUnits="userSpaceOnUse" xlink:href="#id0" x1="3866.03" y1="27664.2" x2="4775.07" y2="26755.2">
  </linearGradient>
  <linearGradient id="id7" gradientUnits="userSpaceOnUse" xlink:href="#id0" x1="3866.03" y1="30261.4" x2="4775.07" y2="29352.4">
  </linearGradient>
  <linearGradient id="id8" gradientUnits="userSpaceOnUse" xlink:href="#id0" x1="27504.1" y1="20651.8" x2="28413.1" y2="19742.7">
  </linearGradient>
  <linearGradient id="id9" gradientUnits="userSpaceOnUse" xlink:href="#id1" x1="17464.2" y1="22119.2" x2="18191.4" y2="21392">
  </linearGradient>
  <linearGradient id="id10" gradientUnits="userSpaceOnUse" xlink:href="#id0" x1="5164.64" y1="28962.8" x2="6073.68" y2="28053.8">
  </linearGradient>
  <linearGradient id="id11" gradientUnits="userSpaceOnUse" xlink:href="#id0" x1="490.17" y1="9222.66" x2="1398.18" y2="8312.94">
  </linearGradient>
  <linearGradient id="id12" gradientUnits="userSpaceOnUse" x1="7134.42" y1="31185.3" x2="24362.5" y2="13364.7">
   <stop offset="0" style="stop-opacity:1; stop-color:#56398F"/>
   <stop offset="0.65098" style="stop-opacity:1; stop-color:#79319F"/>
   <stop offset="0.678431" style="stop-opacity:1; stop-color:#79319F"/>
   <stop offset="1" style="stop-opacity:1; stop-color:#9C29B0"/>
  </linearGradient>
  <linearGradient id="id13" gradientUnits="userSpaceOnUse" xlink:href="#id1" x1="11230.4" y1="22118.7" x2="11958.5" y2="21392.4">
  </linearGradient>
  <linearGradient id="id14" gradientUnits="userSpaceOnUse" xlink:href="#id0" x1="28802.7" y1="19353.2" x2="29711.7" y2="18444.1">
  </linearGradient>
  <linearGradient id="id15" gradientUnits="userSpaceOnUse" xlink:href="#id0" x1="28802.7" y1="21950.4" x2="29711.7" y2="21041.3">
  </linearGradient>
  <linearGradient id="id16" gradientUnits="userSpaceOnUse" xlink:href="#id0" x1="30101.8" y1="20652.1" x2="31009.8" y2="19742.4">
  </linearGradient>
  <linearGradient id="id17" gradientUnits="userSpaceOnUse" xlink:href="#id1" x1="15386.8" y1="22119.6" x2="16113.2" y2="21391.5">
  </linearGradient>
 </defs>
 <g id="Layer_x0020_1">
  <metadata id="CorelCorpID_0Corel-Layer"/>
  <g id="_828207680">
   <g id="_823158688">
    <path class="fil0" d="M1723 6690l1039 0 0 1558 -1039 0 0 -1558zm0 0z"/>
    <path class="fil1" d="M2762 8248l1559 0 0 1039 -1559 0 0 -1039zm0 0z"/>
    <path class="fil2" d="M165 8248l1558 0 0 1039 -1558 0 0 -1039zm0 0z"/>
    <path class="fil3" d="M1723 9287l1039 0 0 1559 -1039 0 0 -1559zm0 0z"/>
    <path class="fil4" d="M28738 18119l1039 0 0 1559 -1039 0 0 -1559zm0 0z"/>
    <path class="fil5" d="M29777 19678l1558 0 0 1039 -1558 0 0 -1039zm0 0z"/>
    <path class="fil6" d="M27179 19678l1559 0 0 1039 -1559 0 0 -1039zm0 0z"/>
    <path class="fil7" d="M28738 20717l1039 0 0 1558 -1039 0 0 -1558zm0 0z"/>
    <path class="fil8" d="M3801 26431l1039 0 0 1558 -1039 0 0 -1558zm0 0z"/>
    <path class="fil9" d="M4840 27989l1558 0 0 1039 -1558 0 0 -1039zm0 0z"/>
    <path class="fil10" d="M2243 27989l1558 0 0 1039 -1558 0 0 -1039zm0 0z"/>
    <path class="fil11" d="M3801 29028l1039 0 0 1558 -1039 0 0 -1558zm0 0z"/>
    <path class="fil12" d="M6523 37675c98,118 243,185 395,185l17663 0c288,0 519,-233 519,-519 0,-30 -2,-57 -7,-87l-2582 -15493 1541 -8222c40,-205 -48,-412 -220,-528 -860,-569 -1417,-1496 -1517,-2523l-332 -3330c-26,-268 -252,-470 -519,-468l-1558 0c-80,2 -159,22 -230,59l0 -5 -278 139c-2297,1141 -4996,1141 -7293,0l-278 -139 0 5c-72,-38 -151,-59 -233,-59l-1560 0c-267,-2 -491,200 -517,468l-335 3330c-100,1027 -656,1952 -1515,2523 -175,116 -261,323 -223,528l1541 8222 -2581 15493c-25,152 18,306 119,421l0 0zm12395 -29458l-2624 6235c-126,299 -472,440 -772,313 -141,-59 -253,-173 -314,-313l-2625 -6235c1015,371 2087,561 3167,561 1080,0 2154,-190 3168,-561zm-8890 13623c10,-60 10,-121 0,-181l-1500 -7988c961,-753 1572,-1864 1691,-3079l287 -2863 743 0 3000 7125c350,829 1304,1217 2133,868 391,-165 704,-476 869,-868l3000 -7125 745 0 287 2863c119,1213 730,2326 1687,3079l-1496 7988c-12,60 -12,121 0,181l2494 14981 -16436 0 2496 -14981zm0 0z"/>
    <path class="fil13" d="M11075 21236l1039 0 0 1039 -1039 0 0 -1039zm0 0z"/>
    <path class="fil14" d="M13153 21236l1039 0 0 1039 -1039 0 0 -1039zm0 0z"/>
    <path class="fil15" d="M15231 21236l1038 0 0 1039 -1038 0 0 -1039zm0 0z"/>
    <path class="fil16" d="M17308 21236l1039 0 0 1039 -1039 0 0 -1039zm0 0z"/>
    <path class="fil17" d="M19386 21236l1039 0 0 1039 -1039 0 0 -1039zm0 0z"/>
   </g>
  </g>
 </g>
</svg>
